<mxfile host="app.diagrams.net" modified="2024-04-30T15:17:37.119Z" agent="Mozilla/5.0 (Windows NT 10.0; Win64; x64) AppleWebKit/537.36 (KHTML, like Gecko) Chrome/123.0.0.0 Safari/537.36 OPR/109.0.0.0" version="24.3.1" etag="6jQp2ltTgtt1QCgRu1fO" type="github">
  <diagram name="Seite-1" id="BoxrStShSQ4nm9-CK5yu">
    <mxGraphModel>
      <root>
        <mxCell id="0" />
        <mxCell id="1" parent="0" />
      </root>
    </mxGraphModel>
  </diagram>
</mxfile>
